<svg width="219.805" height="25.782" viewBox="0 0 219.805 25.782" xmlns="http://www.w3.org/2000/svg"><g id="svgGroup" stroke-linecap="round" fill-rule="evenodd" font-size="9pt" stroke="#000" stroke-width="0.25mm" fill="#314225" style="stroke:#000;stroke-width:0.25mm;fill:#314225"><path d="M 30.117 24.414 L 28.164 24.414 L 28.164 15.977 A 8.042 8.042 0 0 1 28.401 13.957 A 5.143 5.143 0 0 1 30.625 10.82 A 4.158 4.158 0 0 1 31.726 10.302 A 3.552 3.552 0 0 1 32.734 10.156 A 3.914 3.914 0 0 1 34.142 10.396 Q 35.174 10.791 35.784 11.837 A 4.726 4.726 0 0 1 36.055 12.383 A 5.829 5.829 0 0 1 36.448 14.001 A 7.17 7.17 0 0 1 36.484 14.727 L 36.484 22.07 A 5.751 5.751 0 0 1 36.445 22.776 Q 36.353 23.517 36.047 23.899 A 1.039 1.039 0 0 1 35.625 24.219 A 2.335 2.335 0 0 1 35.279 24.309 Q 34.725 24.414 33.75 24.414 L 33.75 25.391 L 42.344 25.391 A 1.88 1.88 0 0 0 42.318 25.063 Q 42.22 24.515 41.758 24.453 A 1.147 1.147 0 0 0 41.63 24.429 Q 41.561 24.42 41.481 24.417 A 2.471 2.471 0 0 0 41.367 24.414 L 39.414 24.414 L 39.414 14.727 A 10.013 10.013 0 0 0 39.216 12.658 Q 38.958 11.442 38.368 10.55 A 4.853 4.853 0 0 0 36.602 8.945 A 5.169 5.169 0 0 0 34.258 8.398 A 6.475 6.475 0 0 0 31.233 9.101 A 6.644 6.644 0 0 0 29.414 10.508 Q 28.594 11.406 28.164 12.539 L 28.164 0 L 22.305 0 L 22.305 0.977 L 25.234 0.977 L 25.234 22.07 A 4.853 4.853 0 0 1 25.186 22.787 Q 25.055 23.658 24.573 24.029 A 1.243 1.243 0 0 1 24.219 24.219 Q 23.751 24.375 22.809 24.406 A 15.178 15.178 0 0 1 22.305 24.414 L 22.305 25.391 L 31.094 25.391 A 1.88 1.88 0 0 0 31.068 25.063 Q 30.97 24.515 30.508 24.453 A 1.147 1.147 0 0 0 30.38 24.429 Q 30.311 24.42 30.231 24.417 A 2.471 2.471 0 0 0 30.117 24.414 Z M 145.703 24.414 L 143.945 24.414 L 143.945 18.633 L 146.094 16.641 L 151.602 25.391 L 156.797 25.391 A 1.88 1.88 0 0 0 156.771 25.063 Q 156.673 24.515 156.211 24.453 A 1.147 1.147 0 0 0 156.083 24.429 Q 156.014 24.42 155.934 24.417 A 2.471 2.471 0 0 0 155.82 24.414 L 154.414 24.414 L 148.125 14.727 L 151.797 11.289 A 15.232 15.232 0 0 1 152.363 10.779 Q 153.318 9.966 153.867 9.844 Q 154.18 9.766 154.57 9.766 A 1.88 1.88 0 0 0 154.898 9.74 Q 155.446 9.642 155.508 9.18 A 1.987 1.987 0 0 0 155.547 8.789 L 148.906 8.789 L 148.906 9.766 L 151.836 9.766 L 143.945 17.07 L 143.945 0 L 138.086 0 L 138.086 0.977 L 141.016 0.977 L 141.016 22.07 A 4.853 4.853 0 0 1 140.967 22.787 Q 140.836 23.658 140.354 24.029 A 1.243 1.243 0 0 1 140 24.219 Q 139.532 24.375 138.59 24.406 A 15.178 15.178 0 0 1 138.086 24.414 L 138.086 25.391 L 146.68 25.391 A 1.88 1.88 0 0 0 146.654 25.063 Q 146.556 24.515 146.094 24.453 A 1.147 1.147 0 0 0 145.966 24.429 Q 145.897 24.42 145.817 24.417 A 2.471 2.471 0 0 0 145.703 24.414 Z M 4.375 25.391 L 15.117 25.391 Q 15.117 24.974 14.971 24.732 A 0.675 0.675 0 0 0 14.492 24.414 A 1.987 1.987 0 0 0 14.102 24.375 L 11.445 24.375 L 11.445 2.969 L 13.711 2.969 A 3.864 3.864 0 0 1 15.987 3.638 Q 17.28 4.543 17.896 6.676 A 10.143 10.143 0 0 1 17.93 6.797 A 1.006 1.006 0 0 0 17.933 6.879 Q 17.939 6.96 17.96 7.013 A 0.242 0.242 0 0 0 17.969 7.031 L 18.594 9.648 L 19.688 9.648 L 19.492 1.953 L 0.195 1.953 L 0 9.648 L 1.094 9.648 L 1.719 7.031 A 8.923 8.923 0 0 1 2.454 5.342 Q 3.721 3.145 5.977 2.969 L 8.086 2.969 L 8.086 24.375 L 4.375 24.375 L 4.375 25.391 Z M 123.477 24.414 L 121.719 24.414 L 121.719 15.977 A 8.626 8.626 0 0 1 122.018 13.916 A 5.382 5.382 0 0 1 124.297 10.742 Q 125.352 10.078 126.445 10.078 Q 128.534 10.078 129.452 11.789 A 4.568 4.568 0 0 1 129.687 12.305 A 5.056 5.056 0 0 1 129.989 13.515 A 6.52 6.52 0 0 1 130.039 14.336 L 130.039 22.07 A 4.853 4.853 0 0 1 129.99 22.787 Q 129.86 23.658 129.378 24.029 A 1.243 1.243 0 0 1 129.023 24.219 Q 128.555 24.375 127.614 24.406 A 15.178 15.178 0 0 1 127.109 24.414 L 127.109 25.391 L 135.898 25.391 A 1.88 1.88 0 0 0 135.872 25.063 Q 135.775 24.515 135.313 24.453 A 1.147 1.147 0 0 0 135.184 24.429 Q 135.115 24.42 135.036 24.417 A 2.471 2.471 0 0 0 134.922 24.414 L 132.969 24.414 L 132.969 14.727 A 8.867 8.867 0 0 0 132.731 12.603 A 5.445 5.445 0 0 0 130.273 9.141 A 5.188 5.188 0 0 0 127.578 8.398 A 5.815 5.815 0 0 0 123.181 10.283 A 7.462 7.462 0 0 0 122.813 10.703 Q 122.109 11.602 121.68 12.695 L 121.523 8.789 L 115.859 8.789 L 115.859 9.766 L 118.789 9.766 L 118.789 22.07 A 4.853 4.853 0 0 1 118.74 22.787 Q 118.61 23.658 118.128 24.029 A 1.243 1.243 0 0 1 117.773 24.219 Q 117.305 24.375 116.364 24.406 A 15.178 15.178 0 0 1 115.859 24.414 L 115.859 25.391 L 124.453 25.391 A 1.88 1.88 0 0 0 124.427 25.063 Q 124.33 24.515 123.867 24.453 A 1.147 1.147 0 0 0 123.739 24.429 Q 123.67 24.42 123.591 24.417 A 2.471 2.471 0 0 0 123.477 24.414 Z M 169.805 8.164 L 169.805 13.047 L 168.789 13.047 Q 168.728 10.228 166.312 9.596 A 6.215 6.215 0 0 0 164.805 9.414 Q 161.875 9.414 161.172 11.133 A 2.515 2.515 0 0 0 160.977 12.109 A 2.355 2.355 0 0 0 161.592 13.673 Q 161.913 14.048 162.403 14.388 A 7.397 7.397 0 0 0 163.398 14.961 Q 163.935 15.229 165.075 15.686 A 60.956 60.956 0 0 0 165.117 15.703 Q 168.281 16.992 169.336 18.164 A 4.273 4.273 0 0 1 170.469 21.133 A 4.497 4.497 0 0 1 170.107 22.982 Q 169.609 24.098 168.427 24.784 A 6.496 6.496 0 0 1 167.109 25.352 A 8.422 8.422 0 0 1 165.135 25.747 A 10.145 10.145 0 0 1 164.297 25.781 A 9.959 9.959 0 0 1 161.67 25.41 A 8.171 8.171 0 0 1 159.414 24.375 Q 159.414 25.072 159.175 25.364 A 0.55 0.55 0 0 1 158.906 25.547 Q 158.705 25.58 158.446 25.585 A 4.742 4.742 0 0 1 158.359 25.586 L 158.359 19.648 L 159.453 19.648 A 8.659 8.659 0 0 0 159.674 21.552 Q 160.32 24.212 162.847 24.643 A 6.166 6.166 0 0 0 163.828 24.727 Q 165.373 24.727 166.34 24.188 A 2.876 2.876 0 0 0 167.461 23.086 A 2.459 2.459 0 0 0 167.812 21.797 Q 167.813 20.162 165.448 18.993 A 9.678 9.678 0 0 0 165.43 18.984 Q 164.941 18.721 163.837 18.241 A 64.436 64.436 0 0 0 163.75 18.203 A 28.159 28.159 0 0 1 162.283 17.549 Q 160.898 16.879 160.093 16.252 A 4.662 4.662 0 0 1 159.492 15.703 A 4.415 4.415 0 0 1 158.359 12.695 Q 158.359 10.592 160.167 9.464 A 6.307 6.307 0 0 1 161.328 8.906 A 8.211 8.211 0 0 1 163.656 8.419 A 9.676 9.676 0 0 1 164.297 8.398 Q 166.875 8.398 168.75 9.492 A 3.576 3.576 0 0 1 168.773 9.072 Q 168.824 8.644 168.989 8.421 A 0.572 0.572 0 0 1 169.297 8.203 A 2.858 2.858 0 0 1 169.605 8.17 A 3.533 3.533 0 0 1 169.805 8.164 Z M 211.094 1.953 L 200.117 1.953 L 200.117 2.969 L 203.242 2.969 L 203.242 24.375 L 200.117 24.375 L 200.117 25.391 L 211.211 25.391 A 12.477 12.477 0 0 0 214.064 25.086 Q 216.019 24.626 217.392 23.476 A 7.286 7.286 0 0 0 218.594 22.187 A 6.145 6.145 0 0 0 219.805 18.516 Q 219.805 15.391 217.031 13.672 A 8.674 8.674 0 0 0 215.171 12.883 A 10.812 10.812 0 0 0 214.062 12.617 A 7.44 7.44 0 0 0 216.09 11.496 A 6.057 6.057 0 0 0 217.93 9.063 Q 218.32 8.125 218.32 7.266 A 4.882 4.882 0 0 0 217.861 5.114 Q 217.347 4.052 216.261 3.3 A 6.72 6.72 0 0 0 215.508 2.852 A 8.464 8.464 0 0 0 213.348 2.151 Q 212.4 1.972 211.319 1.955 A 14.521 14.521 0 0 0 211.094 1.953 Z M 73.945 1.953 L 63.047 1.953 L 63.047 2.969 L 66.172 2.969 L 66.172 24.375 L 63.047 24.375 L 63.047 25.391 L 73.828 25.391 Q 79.102 25.391 82.5 22.109 A 10.854 10.854 0 0 0 85.791 15.114 A 14.868 14.868 0 0 0 85.859 13.672 Q 85.859 6.953 80.938 3.828 A 12.389 12.389 0 0 0 75.701 2.049 A 15.642 15.642 0 0 0 73.945 1.953 Z M 184.492 1.953 L 173.594 1.953 L 173.594 2.969 L 176.719 2.969 L 176.719 24.375 L 173.594 24.375 L 173.594 25.391 L 184.375 25.391 Q 189.648 25.391 193.047 22.109 A 10.854 10.854 0 0 0 196.338 15.114 A 14.868 14.868 0 0 0 196.406 13.672 Q 196.406 6.953 191.484 3.828 A 12.389 12.389 0 0 0 186.247 2.049 A 15.642 15.642 0 0 0 184.492 1.953 Z M 97.93 24.414 L 95.117 24.414 L 95.117 16.641 A 9.361 9.361 0 0 1 95.444 14.102 A 7.015 7.015 0 0 1 97.305 10.937 Q 97.979 10.294 98.485 10.131 A 1.108 1.108 0 0 1 98.75 10.078 A 0.971 0.971 0 0 1 99.328 10.279 Q 99.64 10.505 99.922 10.987 A 4.164 4.164 0 0 1 99.961 11.055 Q 100.586 12.148 101.133 12.305 A 1.476 1.476 0 0 0 101.594 12.383 A 1.397 1.397 0 0 0 101.602 12.383 Q 102.612 12.383 102.984 11.54 A 2.109 2.109 0 0 0 103.086 11.25 A 1.476 1.476 0 0 0 103.164 10.789 A 1.397 1.397 0 0 0 103.164 10.781 Q 103.164 9.343 101.961 8.82 A 3.186 3.186 0 0 0 101.367 8.633 A 4.068 4.068 0 0 0 100.894 8.566 A 3.375 3.375 0 0 0 100.625 8.555 A 5.246 5.246 0 0 0 97.273 9.771 A 7.479 7.479 0 0 0 96.445 10.547 A 7.531 7.531 0 0 0 95.078 12.656 L 94.922 8.789 L 89.258 8.789 L 89.258 9.766 L 92.188 9.766 L 92.188 22.07 A 4.853 4.853 0 0 1 92.139 22.787 Q 92.008 23.658 91.526 24.029 A 1.243 1.243 0 0 1 91.172 24.219 Q 90.704 24.375 89.762 24.406 A 15.178 15.178 0 0 1 89.258 24.414 L 89.258 25.391 L 98.906 25.391 A 1.88 1.88 0 0 0 98.88 25.063 Q 98.783 24.515 98.32 24.453 A 1.147 1.147 0 0 0 98.192 24.429 Q 98.123 24.42 98.044 24.417 A 2.471 2.471 0 0 0 97.93 24.414 Z M 59.883 21.641 L 58.906 21.289 Q 57.543 24.25 54.508 24.646 A 6.79 6.79 0 0 1 54.492 24.648 A 7.869 7.869 0 0 1 53.974 24.684 A 6.666 6.666 0 0 1 53.75 24.687 Q 49.812 24.688 48.683 20.186 A 11.848 11.848 0 0 1 48.594 19.805 Q 48.281 18.438 48.242 16.797 L 52.93 16.875 A 42.823 42.823 0 0 0 53.449 16.88 Q 57.546 16.898 58.92 16.07 A 2.192 2.192 0 0 0 59.062 15.977 A 2.527 2.527 0 0 0 60.099 14.122 A 3.625 3.625 0 0 0 60.117 13.75 A 4.413 4.413 0 0 0 58.439 10.239 A 7.088 7.088 0 0 0 57.422 9.531 Q 55.508 8.398 53.008 8.398 A 9.11 9.11 0 0 0 50.118 8.831 Q 47.542 9.689 46.129 12.25 A 9.48 9.48 0 0 0 46.016 12.461 A 9.781 9.781 0 0 0 44.982 16.011 A 12.04 12.04 0 0 0 44.922 17.227 A 10.645 10.645 0 0 0 45.296 20.136 A 7.465 7.465 0 0 0 48.398 24.414 A 8.3 8.3 0 0 0 52.754 25.774 A 10.089 10.089 0 0 0 53.125 25.781 A 9.184 9.184 0 0 0 55.627 25.461 A 6.364 6.364 0 0 0 59.336 22.734 A 10.763 10.763 0 0 0 59.853 21.709 A 9.907 9.907 0 0 0 59.883 21.641 Z M 69.531 2.969 L 73.828 2.969 A 10.175 10.175 0 0 1 76.779 3.366 Q 80.008 4.343 81.249 7.726 A 10.468 10.468 0 0 1 81.523 8.594 Q 82.109 10.664 82.109 13.516 Q 82.109 17.936 80.738 20.557 A 6.77 6.77 0 0 1 75.469 24.258 A 9.755 9.755 0 0 1 73.945 24.375 L 69.531 24.375 L 69.531 2.969 Z M 180.078 2.969 L 184.375 2.969 A 10.175 10.175 0 0 1 187.326 3.366 Q 190.555 4.343 191.796 7.726 A 10.468 10.468 0 0 1 192.07 8.594 Q 192.656 10.664 192.656 13.516 Q 192.656 17.936 191.285 20.557 A 6.77 6.77 0 0 1 186.016 24.258 A 9.755 9.755 0 0 1 184.492 24.375 L 180.078 24.375 L 180.078 2.969 Z M 112.539 24.414 L 110.586 24.414 L 110.586 8.789 L 104.531 8.789 L 104.531 9.766 L 107.656 9.766 L 107.656 22.07 A 4.042 4.042 0 0 1 107.59 22.835 Q 107.512 23.239 107.342 23.536 A 1.54 1.54 0 0 1 106.445 24.258 A 3.263 3.263 0 0 1 106.082 24.33 Q 105.691 24.387 105.115 24.405 A 18.397 18.397 0 0 1 104.531 24.414 L 104.531 25.391 L 113.516 25.391 A 1.88 1.88 0 0 0 113.49 25.063 Q 113.392 24.515 112.93 24.453 A 1.987 1.987 0 0 0 112.539 24.414 Z M 206.602 13.203 L 210.82 13.203 A 6.416 6.416 0 0 1 212.68 13.454 Q 214.725 14.073 215.586 16.211 A 5.874 5.874 0 0 1 216.045 18.235 A 6.874 6.874 0 0 1 216.055 18.594 A 7.429 7.429 0 0 1 215.802 20.584 A 5.369 5.369 0 0 1 214.102 23.281 A 4.586 4.586 0 0 1 211.155 24.373 A 5.809 5.809 0 0 1 211.016 24.375 L 206.602 24.375 L 206.602 13.203 Z M 206.602 2.969 L 210.156 2.969 Q 213.602 2.969 214.498 5.576 A 5.475 5.475 0 0 1 214.727 6.523 Q 214.805 7.031 214.805 7.578 A 5.107 5.107 0 0 1 214.547 9.242 A 4.131 4.131 0 0 1 212.813 11.406 A 4.783 4.783 0 0 1 210.766 12.11 A 6.067 6.067 0 0 1 210.078 12.148 L 206.602 12.148 L 206.602 2.969 Z M 52.383 15.82 L 48.242 15.703 A 11.757 11.757 0 0 1 48.499 13.652 Q 48.747 12.543 49.221 11.714 A 4.57 4.57 0 0 1 51.172 9.844 Q 52.07 9.375 53.086 9.375 A 4.959 4.959 0 0 1 54.479 9.557 Q 56.048 10.016 56.698 11.628 A 4.756 4.756 0 0 1 56.719 11.68 A 4.052 4.052 0 0 1 57.03 13.161 A 4.659 4.659 0 0 1 57.031 13.281 A 3.032 3.032 0 0 1 56.899 14.211 Q 56.533 15.349 55.156 15.664 A 6.753 6.753 0 0 1 54.592 15.75 Q 53.811 15.838 52.677 15.825 A 28.161 28.161 0 0 1 52.383 15.82 Z M 111.055 3.086 Q 111.055 1.719 109.844 1.133 A 2.669 2.669 0 0 0 109.385 0.986 A 2.065 2.065 0 0 0 108.945 0.938 A 2.311 2.311 0 0 0 108.098 1.085 Q 107.377 1.367 106.992 2.188 Q 106.797 2.617 106.797 3.086 Q 106.797 4.407 107.874 4.977 A 2.734 2.734 0 0 0 108.086 5.078 A 2.535 2.535 0 0 0 108.811 5.231 A 2.367 2.367 0 0 0 108.945 5.234 A 2.298 2.298 0 0 0 109.754 5.1 Q 110.365 4.872 110.722 4.256 A 2.688 2.688 0 0 0 110.859 3.984 Q 111.055 3.555 111.055 3.086 Z" vector-effect="non-scaling-stroke"/></g></svg>